<svg version="1.1" xmlns="http://www.w3.org/2000/svg" xmlns:xlink="http://www.w3.org/1999/xlink" width="23.18182" height="23.18182" viewBox="0,0,23.18182,23.18182"><g transform="translate(-228.40909,-168.40909)"><g data-paper-data="{&quot;isPaintingLayer&quot;:true}" fill-rule="nonzero" stroke="none" stroke-linecap="butt" stroke-linejoin="miter" stroke-miterlimit="10" stroke-dasharray="" stroke-dashoffset="0" style="mix-blend-mode: normal"><path d="M228.40909,191.59091v-23.18182h23.18182v23.18182z" fill="none" stroke-width="0"/><path d="M233.40602,186.33532c-3.09514,-1.16807 -1.60508,-7.58516 -1.60508,-9.76866c0,0 0,-0.28677 0.22825,-0.50566c0.06913,-0.73388 0.2619,-1.36962 0.64185,-1.82623c0.67546,-0.81177 2.66058,-0.86642 3.73308,-0.95897c3.47874,-0.30021 9.10069,-1.0458 11.52538,1.17776c0.47438,2.81993 0.54583,5.63474 0.54583,8.47674c0,0.99765 0.41359,2.52594 -0.6138,3.33251c-1.45228,1.14015 -5.21426,0.65686 -7.28354,0.60381c-2.25024,0.23912 -4.44782,0.44065 -5.87404,-0.26365c-0.48285,-0.04598 -0.92864,-0.12829 -1.29793,-0.26765z" fill="#000000" stroke-width="0.5"/><path d="M235.40277,183.38484c0,0.75 -0.75,0.75 -0.75,0.75l-0.09899,-0.00459c-0.27273,0.0303 -0.54545,0.06061 -0.81818,0.09091c0,0 -0.74541,0.08282 -0.82824,-0.66259c-0.08282,-0.74541 0.66259,-0.82824 0.66259,-0.82824c0.27273,-0.0303 0.54545,-0.06061 0.81818,-0.09091l0.26464,-0.00459c0,0 0.75,0 0.75,0.75z" fill="#ea1919" stroke-width="0.5"/><path d="M238.67549,183.38484c0,0.75 -0.75,0.75 -0.75,0.75c-0.27273,0 -0.72727,0 -1,0c0,0 -0.75,0 -0.75,-0.75c0,-0.75 0.75,-0.75 0.75,-0.75c0.27273,0 0.54545,0 0.81818,0h0.18182c0,0 0.75,0 0.75,0.75z" fill="#ea1919" stroke-width="0.5"/><path d="M241.67549,183.38484c0,0.75 -0.75,0.75 -0.75,0.75c-0.27273,0 -0.63636,0 -0.90909,0c0,0 -0.75,0 -0.75,-0.75c0,-0.75 0.75,-0.75 0.75,-0.75c0.27273,0 0.54545,0 0.81818,0h0.09091c0,0 0.75,0 0.75,0.75z" fill="#ea1919" stroke-width="0.5"/><path d="M243.28913,184.13484c0,0 -0.09882,0 -0.22472,-0.03587c-0.07243,0.02329 -0.14966,0.03587 -0.22983,0.03587c-0.41421,0 -0.75,-0.33579 -0.75,-0.75c0,-0.41421 0.33579,-0.75 0.75,-0.75c0.08017,0 0.1574,0.01258 0.22983,0.03587c0.1259,-0.03587 0.22472,-0.03587 0.22472,-0.03587c0.84848,0 1.69697,0 2.54545,0h0.27273c0,0 0.06387,0 0.15434,0.01864c0.04216,-0.00468 0.08432,-0.00937 0.12647,-0.01405l0.17373,-0.00459c0,0 0.75,0 0.75,0.75c0,0.75 -0.75,0.75 -0.75,0.75l-0.00809,-0.00459c-0.27273,0.0303 -0.54545,0.06061 -0.81818,0.09091c0,0 -0.23983,0.02665 -0.46253,-0.08632c-0.67083,0 -1.39343,0 -1.98393,0z" fill="#ea1919" stroke-width="0.5"/><path d="M235.17641,180.61304c0,0.75 -0.75,0.75 -0.75,0.75l-0.09899,-0.00459c-0.27273,0.0303 -0.54546,0.0606 -0.81818,0.09091c0,0 -0.74541,0.08283 -0.82824,-0.66259c-0.08283,-0.74542 0.66259,-0.82824 0.66259,-0.82824c0.27273,-0.0303 0.54545,-0.0606 0.81818,-0.09091l0.26464,-0.00459c0,0 0.75,0 0.75,0.75z" fill="#ffd400" stroke-width="0.5"/><path d="M238.44914,180.61304c0,0.75 -0.75,0.75 -0.75,0.75c-0.27273,0 -0.72727,0 -1,0c0,0 -0.75,0 -0.75,-0.75c0,-0.75 0.75,-0.75 0.75,-0.75c0.27273,0 0.54545,0 0.81818,0h0.18182c0,0 0.75,0 0.75,0.75z" fill="#ffd400" stroke-width="0.5"/><path d="M241.44914,180.61304c0,0.75 -0.75,0.75 -0.75,0.75c-0.27273,0 -0.63636,0 -0.90909,0c0,0 -0.75,0 -0.75,-0.75c0,-0.75 0.75,-0.75 0.75,-0.75c0.27273,0 0.54545,0 0.81818,0h0.09091c0,0 0.75,0 0.75,0.75z" fill="#ffd400" stroke-width="0.5"/><path d="M243.3355,179.86304c0.41422,0 0.75,0.33578 0.75,0.75c0,0.41422 -0.33578,0.75 -0.75,0.75c-0.13194,0 -0.25593,-0.03407 -0.36364,-0.0939c-0.10771,0.05982 -0.2317,0.0939 -0.36364,0.0939c-0.41422,0 -0.75,-0.33578 -0.75,-0.75c0,-0.41422 0.33578,-0.75 0.75,-0.75c0.13194,0 0.25593,0.03407 0.36364,0.09389c0.10771,-0.05982 0.2317,-0.09389 0.36364,-0.09389z" fill="#ffd400" stroke-width="0.5"/><path d="M247.0855,180.61304c0,0.75 -0.75,0.75 -0.75,0.75l-0.00808,-0.00459c-0.27273,0.0303 -0.54546,0.0606 -0.81818,0.09091c0,0 -0.74541,0.08283 -0.82824,-0.66259c-0.08283,-0.74542 0.66259,-0.82824 0.66259,-0.82824c0.27273,-0.0303 0.54545,-0.0606 0.81818,-0.09091l0.17373,-0.00459c0,0 0.75,0 0.75,0.75z" fill="#51566b" stroke-width="0.5"/><path d="M235.26732,177.79486c0,0.75 -0.75,0.75 -0.75,0.75l-0.09899,-0.00459c-0.27273,0.0303 -0.54546,0.0606 -0.81818,0.09091c0,0 -0.74541,0.08283 -0.82824,-0.66259c-0.08283,-0.74542 0.66259,-0.82824 0.66259,-0.82824c0.27273,-0.0303 0.54546,-0.0606 0.81818,-0.09091l0.26464,-0.00459c0,0 0.75,0 0.75,0.75z" fill="#369cff" stroke-width="0.5"/><path d="M238.54005,177.79486c0,0.75 -0.75,0.75 -0.75,0.75c-0.27273,0 -0.72727,0 -1,0c0,0 -0.75,0 -0.75,-0.75c0,-0.75 0.75,-0.75 0.75,-0.75c0.27273,0 0.54546,0 0.81818,0h0.18182c0,0 0.75,0 0.75,0.75z" fill="#369cff" stroke-width="0.5"/><path d="M241.54005,177.79486c0,0.75 -0.75,0.75 -0.75,0.75c-0.27273,0 -0.63636,0 -0.90909,0c0,0 -0.75,0 -0.75,-0.75c0,-0.75 0.75,-0.75 0.75,-0.75c0.27273,0 0.54546,0 0.81818,0h0.09091c0,0 0.75,0 0.75,0.75z" fill="#369cff" stroke-width="0.5"/><path d="M243.42641,177.04486c0.41422,0 0.75,0.33578 0.75,0.75c0,0.41422 -0.33578,0.75 -0.75,0.75c-0.13194,0 -0.25593,-0.03407 -0.36364,-0.0939c-0.10771,0.05982 -0.2317,0.0939 -0.36363,0.0939c-0.41422,0 -0.75,-0.33578 -0.75,-0.75c0,-0.41422 0.33578,-0.75 0.75,-0.75c0.13194,0 0.25592,0.03407 0.36363,0.09389c0.10771,-0.05982 0.2317,-0.09389 0.36364,-0.09389z" fill="#51566b" stroke-width="0.5"/><path d="M247.17641,177.79486c0,0.75 -0.75,0.75 -0.75,0.75l-0.00808,-0.00459c-0.27273,0.0303 -0.54546,0.0606 -0.81818,0.09091c0,0 -0.74541,0.08283 -0.82824,-0.66259c-0.08283,-0.74542 0.66259,-0.82824 0.66259,-0.82824c0.27273,-0.0303 0.54546,-0.0606 0.81818,-0.09091l0.17373,-0.00459c0,0 0.75,0 0.75,0.75z" fill="#51566b" stroke-width="0.5"/></g></g></svg>